<!-- <?xml version="1.0" encoding="utf-8"?>Generator: Adobe Illustrator 21.0.0, SVG Export Plug-In . SVG Version: 6.00 Build 0) -->

<svg version="1.1" id="Layer_1" xmlns="http://www.w3.org/2000/svg" xmlns:xlink="http://www.w3.org/1999/xlink" x="0px" y="0px" viewBox="0 0 100 100" style="enable-background:new 0 0 100 100;" xml:space="preserve">

<style type="text/css">.st4{fill:#000000;} .st5{fill:#000000;}</style>

  <g>
    <path class="st4" d="M54.1,29.4h-8.1L65.6,9.7c9,3.8,16.4,10.9,20.7,19.6L54.1,29.4L54.1,29.4z"/><path class="st5" d="M38.2,32.5L61,9.7c-9.2-3.2-19.4-2.9-28.5,0.7v27.8L38.2,32.5L38.2,32.5z"/><path class="st5" d="M38.3,32.5L61.1,9.7c0,0,0,0,0,0L38.3,32.5L38.3,32.5z"/><path class="st4" d="M29.3,46V13.7C20.5,18,13.5,25.4,9.7,34.4l19.7,19.7L29.3,46L29.3,46z"/><path class="st5" d="M29.4,45.9V13.7c0,0,0,0,0,0L29.4,45.9L29.4,45.9z"/><path class="st5" d="M32.5,61.8L9.7,39c-3.2,9.2-2.9,19.4,0.7,28.5h27.8L32.5,61.8L32.5,61.8z"/><path class="st5" d="M32.5,61.7L9.7,38.9c0,0,0,0,0,0L32.5,61.7L32.5,61.7z"/><path class="st4" d="M46,70.7H13.7c4.3,8.8,11.7,15.8,20.7,19.6l19.7-19.7L46,70.7L46,70.7z"/><path class="st5" d="M45.9,70.6H13.7c0,0,0,0,0,0L45.9,70.6L45.9,70.6z"/><path class="st5" d="M61.8,67.5L39,90.3c9.2,3.2,19.4,2.9,28.5-0.7V61.7L61.8,67.5L61.8,67.5z"/><path class="st5" d="M61.7,67.5L38.9,90.3c0,0,0,0,0,0L61.7,67.5L61.7,67.5z"/><path class="st4" d="M70.7,54v32.3c8.8-4.3,15.8-11.7,19.6-20.7L70.6,45.9L70.7,54L70.7,54z"/><path class="st5" d="M70.6,54.1v32.3c0,0,0,0,0,0L70.6,54.1L70.6,54.1z"/><path class="st5" d="M67.5,38.2L90.3,61c3.2-9.2,2.9-19.4-0.7-28.5H61.7L67.5,38.2L67.5,38.2z"/><path class="st5" d="M89.6,32.5H61.7l0,0L89.6,32.5C89.6,32.5,89.6,32.5,89.6,32.5z"/><path class="st5" d="M67.5,38.3l22.8,22.8c0,0,0,0,0,0L67.5,38.3L67.5,38.3z"/>
  </g>
</svg>